{
  "accessors": [
    {
      "name": "g1_1_0_positions",
      "componentType": 5126,
      "count": 9283,
      "min": [
        -1.4068200588226318,
        0,
        -1.7817399501800537
      ],
      "max": [
        1.7119100093841553,
        7.174960136413574,
        1.9208199977874756
      ],
      "type": "VEC3",
      "bufferView": 0,
      "byteOffset": 0
    },
    {
      "name": "g1_1_0_normals",
      "componentType": 5126,
      "count": 9283,
      "min": [
        -1,
        -0.9999488592147827,
        -1
      ],
      "max": [
        1,
        0.9995810985565186,
        1
      ],
      "type": "VEC3",
      "bufferView": 1,
      "byteOffset": 0
    },
    {
      "name": "g1_1_0_texcoords",
      "componentType": 5126,
      "count": 9283,
      "min": [
        0,
        -39.728939056396484
      ],
      "max": [
        2,
        1
      ],
      "type": "VEC2",
      "bufferView": 2,
      "byteOffset": 0
    },
    {
      "name": "g1_1_0_indices",
      "componentType": 5123,
      "count": 36444,
      "min": [
        0
      ],
      "max": [
        9282
      ],
      "type": "SCALAR",
      "bufferView": 3,
      "byteOffset": 0
    },
    {
      "name": "g2_1_0_positions",
      "componentType": 5126,
      "count": 18790,
      "min": [
        -1.8645800352096558,
        0.47203001379966736,
        -2.405590057373047
      ],
      "max": [
        2.378700017929077,
        7.587619781494141,
        2.5826799869537354
      ],
      "type": "VEC3",
      "bufferView": 0,
      "byteOffset": 111396
    },
    {
      "name": "g2_1_0_normals",
      "componentType": 5126,
      "count": 18790,
      "min": [
        -0.9939104318618774,
        -0.9999982118606567,
        -0.9962754249572754
      ],
      "max": [
        0.99785977602005,
        0.9999924898147583,
        0.9998911619186401
      ],
      "type": "VEC3",
      "bufferView": 1,
      "byteOffset": 111396
    },
    {
      "name": "g2_1_0_texcoords",
      "componentType": 5126,
      "count": 18790,
      "min": [
        -0.007439999841153622,
        -0.001069999998435378
      ],
      "max": [
        0.9989299774169922,
        1.000599980354309
      ],
      "type": "VEC2",
      "bufferView": 2,
      "byteOffset": 74264
    },
    {
      "name": "g2_1_0_indices",
      "componentType": 5123,
      "count": 56370,
      "min": [
        0
      ],
      "max": [
        18789
      ],
      "type": "SCALAR",
      "bufferView": 3,
      "byteOffset": 72888
    }
  ],
  "asset": {
    "generator": "obj2gltf",
    "version": "2.0"
  },
  "buffers": [
    {
      "name": "Tree",
      "byteLength": 1083964,
      "uri": "data:application/octet-stream;base64,"
    }
  ],
  "bufferViews": [
    {
      "name": "bufferView_0",
      "buffer": 0,
      "byteLength": 336876,
      "byteOffset": 0,
      "byteStride": 12,
      "target": 34962
    },
    {
      "name": "bufferView_1",
      "buffer": 0,
      "byteLength": 336876,
      "byteOffset": 336876,
      "byteStride": 12,
      "target": 34962
    },
    {
      "name": "bufferView_2",
      "buffer": 0,
      "byteLength": 224584,
      "byteOffset": 673752,
      "byteStride": 8,
      "target": 34962
    },
    {
      "name": "bufferView_3",
      "buffer": 0,
      "byteLength": 185628,
      "byteOffset": 898336,
      "target": 34963
    }
  ],
  "materials": [
    {
      "name": "Trank_bark",
      "pbrMetallicRoughness": {
        "baseColorFactor": [
          0.5,
          0.5,
          0.5,
          1
        ],
        "metallicFactor": 0,
        "roughnessFactor": 1
      },
      "emissiveFactor": [
        0,
        0,
        0
      ],
      "alphaMode": "OPAQUE",
      "doubleSided": false
    },
    {
      "name": "DB2X2_L01",
      "pbrMetallicRoughness": {
        "baseColorFactor": [
          0.5,
          0.5,
          0.5,
          1
        ],
        "metallicFactor": 0,
        "roughnessFactor": 1
      },
      "emissiveFactor": [
        0,
        0,
        0
      ],
      "alphaMode": "OPAQUE",
      "doubleSided": false
    }
  ],
  "meshes": [
    {
      "name": "g1_1",
      "primitives": [
        {
          "attributes": {
            "POSITION": 0,
            "NORMAL": 1,
            "TEXCOORD_0": 2
          },
          "indices": 3,
          "material": 0,
          "mode": 4
        }
      ]
    },
    {
      "name": "g2_1",
      "primitives": [
        {
          "attributes": {
            "POSITION": 4,
            "NORMAL": 5,
            "TEXCOORD_0": 6
          },
          "indices": 7,
          "material": 1,
          "mode": 4
        }
      ]
    }
  ],
  "nodes": [
    {
      "name": "g1",
      "mesh": 0
    },
    {
      "name": "g2",
      "mesh": 1
    }
  ],
  "scene": 0,
  "scenes": [
    {
      "nodes": [
        0,
        1
      ]
    }
  ]
}